<svg xmlns="http://www.w3.org/2000/svg" width="680" height="310" font-family="'JetBrains Mono','Fira Code','Cascadia Code',Menlo,monospace" font-size="13">
  <rect width="680" height="310" rx="8" fill="#0d1117"/>

  <!-- Terminal dots -->
  <circle cx="20" cy="14" r="5" fill="#ff5f57"/>
  <circle cx="36" cy="14" r="5" fill="#febc2e"/>
  <circle cx="52" cy="14" r="5" fill="#28c840"/>
  <text x="340" y="18" fill="#3fb950" font-size="11" font-weight="bold" text-anchor="middle">⚡ punkgo-jack</text>

  <!-- Color key: #0d1117 (empty), #0a3d1f, #0d6630, #26a641, #39d353, #4ae168 -->

  <!-- Row: 3/2 Mon — light day -->
  <text x="24" y="68" fill="#6e7681" font-size="12">3/2 Mon</text>
  <rect x="108" y="55" width="18" height="16" rx="2" fill="#0d1117"/><rect x="128" y="55" width="18" height="16" rx="2" fill="#0d1117"/><rect x="148" y="55" width="18" height="16" rx="2" fill="#0d1117"/><rect x="168" y="55" width="18" height="16" rx="2" fill="#0d1117"/><rect x="188" y="55" width="18" height="16" rx="2" fill="#0d1117"/><rect x="208" y="55" width="18" height="16" rx="2" fill="#0d1117"/><rect x="228" y="55" width="18" height="16" rx="2" fill="#0d1117"/><rect x="248" y="55" width="18" height="16" rx="2" fill="#0d1117"/><rect x="268" y="55" width="18" height="16" rx="2" fill="#0d1117"/><rect x="288" y="55" width="18" height="16" rx="2" fill="#0d1117"/><rect x="308" y="55" width="18" height="16" rx="2" fill="#0d1117"/><rect x="328" y="55" width="18" height="16" rx="2" fill="#0d1117"/><rect x="348" y="55" width="18" height="16" rx="2" fill="#0d1117"/><rect x="368" y="55" width="18" height="16" rx="2" fill="#0d1117"/><rect x="388" y="55" width="18" height="16" rx="2" fill="#0d1117"/><rect x="408" y="55" width="18" height="16" rx="2" fill="#0d1117"/><rect x="428" y="55" width="18" height="16" rx="2" fill="#0d1117"/><rect x="448" y="55" width="18" height="16" rx="2" fill="#0d1117"/><rect x="468" y="55" width="18" height="16" rx="2" fill="#0d1117"/><rect x="488" y="55" width="18" height="16" rx="2" fill="#0d1117"/><rect x="508" y="55" width="18" height="16" rx="2" fill="#0d1117"/><rect x="528" y="55" width="18" height="16" rx="2" fill="#0d1117"/><rect x="548" y="55" width="18" height="16" rx="2" fill="#0d1117"/><rect x="568" y="55" width="18" height="16" rx="2" fill="#0a3d1f"/>
  <text x="600" y="68" fill="#484f58" font-size="11">48</text>

  <!-- Row: 3/3 Tue -->
  <text x="24" y="92" fill="#6e7681" font-size="12">3/3 Tue</text>
  <rect x="108" y="79" width="18" height="16" rx="2" fill="#0a3d1f"/><rect x="128" y="79" width="18" height="16" rx="2" fill="#0d6630"/><rect x="148" y="79" width="18" height="16" rx="2" fill="#0d1117"/><rect x="168" y="79" width="18" height="16" rx="2" fill="#0d1117"/><rect x="188" y="79" width="18" height="16" rx="2" fill="#0d1117"/><rect x="208" y="79" width="18" height="16" rx="2" fill="#0d1117"/><rect x="228" y="79" width="18" height="16" rx="2" fill="#0d1117"/><rect x="248" y="79" width="18" height="16" rx="2" fill="#0d1117"/><rect x="268" y="79" width="18" height="16" rx="2" fill="#0d1117"/><rect x="288" y="79" width="18" height="16" rx="2" fill="#0d1117"/><rect x="308" y="79" width="18" height="16" rx="2" fill="#0d1117"/><rect x="328" y="79" width="18" height="16" rx="2" fill="#0d1117"/><rect x="348" y="79" width="18" height="16" rx="2" fill="#0d1117"/><rect x="368" y="79" width="18" height="16" rx="2" fill="#0d1117"/><rect x="388" y="79" width="18" height="16" rx="2" fill="#0d1117"/><rect x="408" y="79" width="18" height="16" rx="2" fill="#0d1117"/><rect x="428" y="79" width="18" height="16" rx="2" fill="#0d1117"/><rect x="448" y="79" width="18" height="16" rx="2" fill="#0d1117"/><rect x="468" y="79" width="18" height="16" rx="2" fill="#0d1117"/><rect x="488" y="79" width="18" height="16" rx="2" fill="#0d1117"/><rect x="508" y="79" width="18" height="16" rx="2" fill="#0d1117"/><rect x="528" y="79" width="18" height="16" rx="2" fill="#0d6630"/><rect x="548" y="79" width="18" height="16" rx="2" fill="#0d6630"/><rect x="568" y="79" width="18" height="16" rx="2" fill="#26a641"/>
  <text x="600" y="92" fill="#484f58" font-size="11">1,260</text>

  <!-- Row: 3/4 Wed -->
  <text x="24" y="116" fill="#6e7681" font-size="12">3/4 Wed</text>
  <rect x="108" y="103" width="18" height="16" rx="2" fill="#0d6630"/><rect x="128" y="103" width="18" height="16" rx="2" fill="#0d1117"/><rect x="148" y="103" width="18" height="16" rx="2" fill="#0d1117"/><rect x="168" y="103" width="18" height="16" rx="2" fill="#0d1117"/><rect x="188" y="103" width="18" height="16" rx="2" fill="#0d1117"/><rect x="208" y="103" width="18" height="16" rx="2" fill="#0d1117"/><rect x="228" y="103" width="18" height="16" rx="2" fill="#0d1117"/><rect x="248" y="103" width="18" height="16" rx="2" fill="#0d1117"/><rect x="268" y="103" width="18" height="16" rx="2" fill="#0d1117"/><rect x="288" y="103" width="18" height="16" rx="2" fill="#0d1117"/><rect x="308" y="103" width="18" height="16" rx="2" fill="#0d1117"/><rect x="328" y="103" width="18" height="16" rx="2" fill="#0d1117"/><rect x="348" y="103" width="18" height="16" rx="2" fill="#0d1117"/><rect x="368" y="103" width="18" height="16" rx="2" fill="#0d1117"/><rect x="388" y="103" width="18" height="16" rx="2" fill="#0d1117"/><rect x="408" y="103" width="18" height="16" rx="2" fill="#0d1117"/><rect x="428" y="103" width="18" height="16" rx="2" fill="#0d1117"/><rect x="448" y="103" width="18" height="16" rx="2" fill="#0d1117"/><rect x="468" y="103" width="18" height="16" rx="2" fill="#0d1117"/><rect x="488" y="103" width="18" height="16" rx="2" fill="#0d1117"/><rect x="508" y="103" width="18" height="16" rx="2" fill="#0d1117"/><rect x="528" y="103" width="18" height="16" rx="2" fill="#0d1117"/><rect x="548" y="103" width="18" height="16" rx="2" fill="#0a3d1f"/><rect x="568" y="103" width="18" height="16" rx="2" fill="#0a3d1f"/>
  <text x="600" y="116" fill="#484f58" font-size="11">312</text>

  <!-- Row: 3/5 Thu — busy afternoon -->
  <text x="24" y="140" fill="#6e7681" font-size="12">3/5 Thu</text>
  <rect x="108" y="127" width="18" height="16" rx="2" fill="#0a3d1f"/><rect x="128" y="127" width="18" height="16" rx="2" fill="#0d1117"/><rect x="148" y="127" width="18" height="16" rx="2" fill="#0d1117"/><rect x="168" y="127" width="18" height="16" rx="2" fill="#0d1117"/><rect x="188" y="127" width="18" height="16" rx="2" fill="#0d1117"/><rect x="208" y="127" width="18" height="16" rx="2" fill="#0d1117"/><rect x="228" y="127" width="18" height="16" rx="2" fill="#0d1117"/><rect x="248" y="127" width="18" height="16" rx="2" fill="#0d1117"/><rect x="268" y="127" width="18" height="16" rx="2" fill="#0d1117"/><rect x="288" y="127" width="18" height="16" rx="2" fill="#0d1117"/><rect x="308" y="127" width="18" height="16" rx="2" fill="#0d1117"/><rect x="328" y="127" width="18" height="16" rx="2" fill="#0a3d1f"/><rect x="348" y="127" width="18" height="16" rx="2" fill="#0a3d1f"/><rect x="368" y="127" width="18" height="16" rx="2" fill="#0d6630"/><rect x="388" y="127" width="18" height="16" rx="2" fill="#0a3d1f"/><rect x="408" y="127" width="18" height="16" rx="2" fill="#0d6630"/><rect x="428" y="127" width="18" height="16" rx="2" fill="#0d6630"/><rect x="448" y="127" width="18" height="16" rx="2" fill="#0a3d1f"/><rect x="468" y="127" width="18" height="16" rx="2" fill="#0a3d1f"/><rect x="488" y="127" width="18" height="16" rx="2" fill="#0a3d1f"/><rect x="508" y="127" width="18" height="16" rx="2" fill="#0a3d1f"/><rect x="528" y="127" width="18" height="16" rx="2" fill="#0d6630"/><rect x="548" y="127" width="18" height="16" rx="2" fill="#0d6630"/><rect x="568" y="127" width="18" height="16" rx="2" fill="#0d6630"/>
  <text x="600" y="140" fill="#484f58" font-size="11">2,847</text>

  <!-- Row: 3/6 Fri -->
  <text x="24" y="164" fill="#6e7681" font-size="12">3/6 Fri</text>
  <rect x="108" y="151" width="18" height="16" rx="2" fill="#0a3d1f"/><rect x="128" y="151" width="18" height="16" rx="2" fill="#0d1117"/><rect x="148" y="151" width="18" height="16" rx="2" fill="#0d1117"/><rect x="168" y="151" width="18" height="16" rx="2" fill="#0d1117"/><rect x="188" y="151" width="18" height="16" rx="2" fill="#0d1117"/><rect x="208" y="151" width="18" height="16" rx="2" fill="#0d1117"/><rect x="228" y="151" width="18" height="16" rx="2" fill="#0d1117"/><rect x="248" y="151" width="18" height="16" rx="2" fill="#0d1117"/><rect x="268" y="151" width="18" height="16" rx="2" fill="#0d1117"/><rect x="288" y="151" width="18" height="16" rx="2" fill="#0d1117"/><rect x="308" y="151" width="18" height="16" rx="2" fill="#0d1117"/><rect x="328" y="151" width="18" height="16" rx="2" fill="#0d6630"/><rect x="348" y="151" width="18" height="16" rx="2" fill="#26a641"/><rect x="368" y="151" width="18" height="16" rx="2" fill="#0d6630"/><rect x="388" y="151" width="18" height="16" rx="2" fill="#0d6630"/><rect x="408" y="151" width="18" height="16" rx="2" fill="#0d6630"/><rect x="428" y="151" width="18" height="16" rx="2" fill="#0d6630"/><rect x="448" y="151" width="18" height="16" rx="2" fill="#0d6630"/><rect x="468" y="151" width="18" height="16" rx="2" fill="#0a3d1f"/><rect x="488" y="151" width="18" height="16" rx="2" fill="#0a3d1f"/><rect x="508" y="151" width="18" height="16" rx="2" fill="#0d6630"/><rect x="528" y="151" width="18" height="16" rx="2" fill="#26a641"/><rect x="548" y="151" width="18" height="16" rx="2" fill="#0d6630"/><rect x="568" y="151" width="18" height="16" rx="2" fill="#0d6630"/>
  <text x="600" y="164" fill="#484f58" font-size="11">4,215</text>

  <!-- Row: 3/7 Sat -->
  <text x="24" y="188" fill="#6e7681" font-size="12">3/7 Sat</text>
  <rect x="108" y="175" width="18" height="16" rx="2" fill="#0d6630"/><rect x="128" y="175" width="18" height="16" rx="2" fill="#0d1117"/><rect x="148" y="175" width="18" height="16" rx="2" fill="#0d1117"/><rect x="168" y="175" width="18" height="16" rx="2" fill="#0d1117"/><rect x="188" y="175" width="18" height="16" rx="2" fill="#0d1117"/><rect x="208" y="175" width="18" height="16" rx="2" fill="#0d1117"/><rect x="228" y="175" width="18" height="16" rx="2" fill="#0d1117"/><rect x="248" y="175" width="18" height="16" rx="2" fill="#0d1117"/><rect x="268" y="175" width="18" height="16" rx="2" fill="#0d1117"/><rect x="288" y="175" width="18" height="16" rx="2" fill="#0d1117"/><rect x="308" y="175" width="18" height="16" rx="2" fill="#0d1117"/><rect x="328" y="175" width="18" height="16" rx="2" fill="#0d1117"/><rect x="348" y="175" width="18" height="16" rx="2" fill="#0a3d1f"/><rect x="368" y="175" width="18" height="16" rx="2" fill="#0a3d1f"/><rect x="388" y="175" width="18" height="16" rx="2" fill="#0d6630"/><rect x="408" y="175" width="18" height="16" rx="2" fill="#0d6630"/><rect x="428" y="175" width="18" height="16" rx="2" fill="#0a3d1f"/><rect x="448" y="175" width="18" height="16" rx="2" fill="#0d6630"/><rect x="468" y="175" width="18" height="16" rx="2" fill="#0a3d1f"/><rect x="488" y="175" width="18" height="16" rx="2" fill="#0d6630"/><rect x="508" y="175" width="18" height="16" rx="2" fill="#0d6630"/><rect x="528" y="175" width="18" height="16" rx="2" fill="#0d6630"/><rect x="548" y="175" width="18" height="16" rx="2" fill="#0d6630"/><rect x="568" y="175" width="18" height="16" rx="2" fill="#26a641"/>
  <text x="600" y="188" fill="#484f58" font-size="11">3,580</text>

  <!-- Row: 3/8 Sun — peak day -->
  <text x="24" y="212" fill="#6e7681" font-size="12">3/8 Sun</text>
  <rect x="108" y="199" width="18" height="16" rx="2" fill="#0d6630"/><rect x="128" y="199" width="18" height="16" rx="2" fill="#26a641"/><rect x="148" y="199" width="18" height="16" rx="2" fill="#0a3d1f"/><rect x="168" y="199" width="18" height="16" rx="2" fill="#0d1117"/><rect x="188" y="199" width="18" height="16" rx="2" fill="#0d1117"/><rect x="208" y="199" width="18" height="16" rx="2" fill="#0d1117"/><rect x="228" y="199" width="18" height="16" rx="2" fill="#0d1117"/><rect x="248" y="199" width="18" height="16" rx="2" fill="#0d1117"/><rect x="268" y="199" width="18" height="16" rx="2" fill="#0d1117"/><rect x="288" y="199" width="18" height="16" rx="2" fill="#0d1117"/><rect x="308" y="199" width="18" height="16" rx="2" fill="#0d6630"/><rect x="328" y="199" width="18" height="16" rx="2" fill="#0a3d1f"/><rect x="348" y="199" width="18" height="16" rx="2" fill="#0d6630"/><rect x="368" y="199" width="18" height="16" rx="2" fill="#26a641"/><rect x="388" y="199" width="18" height="16" rx="2" fill="#26a641"/><rect x="408" y="199" width="18" height="16" rx="2" fill="#39d353"/><rect x="428" y="199" width="18" height="16" rx="2" fill="#26a641"/><rect x="448" y="199" width="18" height="16" rx="2" fill="#39d353"/><rect x="468" y="199" width="18" height="16" rx="2" fill="#26a641"/><rect x="488" y="199" width="18" height="16" rx="2" fill="#0d6630"/><rect x="508" y="199" width="18" height="16" rx="2" fill="#26a641"/><rect x="528" y="199" width="18" height="16" rx="2" fill="#0d6630"/><rect x="548" y="199" width="18" height="16" rx="2" fill="#0d1117"/><rect x="568" y="199" width="18" height="16" rx="2" fill="#0d1117"/>
  <text x="600" y="212" fill="#484f58" font-size="11">8,340</text>

  <!-- Stats -->
  <text x="24" y="248" fill="#3fb950" font-weight="bold" font-size="13">⚡20,602<tspan fill="#e6edf3" font-weight="normal"> energy</tspan><tspan fill="#484f58"> · </tspan><tspan fill="#e6edf3" font-weight="bold">14,215</tspan><tspan fill="#e6edf3" font-weight="normal"> actions</tspan><tspan fill="#484f58"> · </tspan><tspan fill="#e6edf3" font-weight="bold">529</tspan><tspan fill="#e6edf3" font-weight="normal"> decisions</tspan><tspan fill="#484f58"> · </tspan><tspan fill="#3fb950">99.1%</tspan><tspan fill="#e6edf3" font-weight="normal"> receipted</tspan></text>
  <text x="24" y="268" fill="#6e7681" font-size="12">73 sessions · peak 17:00 · 7 days</text>
  <text x="24" y="294" fill="#484f58" font-size="11">Run <tspan fill="#8b949e">punkgo-jack presence</tspan> or ask Claude <tspan fill="#8b949e">"show my punkgo"</tspan></text>
</svg>
